# AST/ASF file generated using VICON BodyLanguage
# -----------------------------------------------
:version 1.10
:name VICON
:units
  mass 1.0
  length 0.45
  angle deg
:documentation
   .ast/.asf automatically generated from VICON data using
   VICON BodyBuilder and BodyLanguage model FoxedUp or BRILLIANT.MOD
:root
   order TX TY TZ RX RY RZ
   axis XYZ
   position 0 0 0  
   orientation 0 0 0 
:bonedata
  begin
     id 1 
     name lhipjoint
     direction 0.57768 -0.667037 0.470475 
     length 2.36008 
     axis 0 0 0  XYZ
  end
  begin
     id 2 
     name lfemur
     direction 0.34202 -0.939693 0  
     length 6.97235  
     axis 0 0 20  XYZ
    dof rx ry rz
    limits (-160.0 20.0)
           (-70.0 70.0)
           (-60.0 70.0)
  end
  begin
     id 3 
     name ltibia
     direction 0.34202 -0.939693 0   
     length 6.93428   
     axis 0 0 20   XYZ
    dof rx
    limits (-10.0 170.0)
  end
  begin
     id 4 
     name lfoot
     direction 0.133018 -0.365463 0.921272   
     length 2.18603   
     axis -90 7.62852e-016 20   XYZ
    dof rx rz
    limits (-45.0 90.0)
           (-70.0 20.0)
  end
  begin
     id 5 
     name ltoes
     direction 1.53519e-011 -4.22055e-011 1   
     length 1.07924   
     axis -90 7.62852e-016 20   XYZ
    dof rx
    limits (-90.0 20.0)
  end
  begin
     id 6 
     name rhipjoint
     direction -0.577712 -0.667019 0.470462   
     length 2.36015  
     axis 0 0 0  XYZ 
  end
  begin
     id 7 
     name rfemur
     direction -0.34202 -0.939693 0   
     length 6.71195   
     axis 0 0 -20   XYZ
    dof rx ry rz
    limits (-160.0 20.0)
           (-70.0 70.0)
           (-70.0 60.0)
  end
  begin
     id 8 
     name rtibia
     direction -0.34202 -0.939693 0   
     length 7.04592   
     axis 0 0 -20   XYZ
    dof rx
    limits (-10.0 170.0)
 end
 begin
     id 9 
     name rfoot
     direction -0.113796 -0.312651 0.943027   
     length 2.03846  
     axis -90 -7.62852e-016 -20   XYZ
    dof rx rz
    limits (-45.0 90.0)
           (-20.0 70.0)
  end
  begin
     id 10 
     name rtoes
     direction -1.53586e-011 -4.218e-011 1   
     length 1.01562   
     axis -90 -7.62852e-016 -20   XYZ
    dof rx
    limits (-90.0 20.0)
  end
  begin
     id 11 
     name lowerback
     direction -0.0417299 0.991937 -0.119667   
     length 2.05257   
     axis 0 0 0   XYZ
    dof rx ry rz
    limits (-20.0 45.0)
           (-30.0 30.0)
           (-30.0 30.0)
  end
  begin
     id 12 
     name upperback
     direction -0.00017666 0.999999 0.00105178   
     length 2.05693   
     axis 0 0 0   XYZ
    dof rx ry rz
    limits (-20.0 45.0)
           (-30.0 30.0)
           (-30.0 30.0)
  end
  begin
     id 13 
     name thorax
     direction 0.0185169 0.998203 0.0569866   
     length 2.0932   
     axis 0 0 0   XYZ
    dof rx ry rz
    limits (-20.0 45.0)
           (-30.0 30.0)
           (-30.0 30.0)
  end
  begin
     id 14 
     name lowerneck
     direction -0.0212406 0.982645 0.184277   
     length 1.72509   
     axis 0 0 0   XYZ
    dof rx ry rz
    limits (-20.0 45.0)
           (-30.0 30.0)
           (-30.0 30.0)
  end
  begin
     id 15 
     name upperneck
     direction 0.00528579 0.965323 -0.261004   
     length 1.76294   
     axis 0 0 0   XYZ
    dof rx ry rz
    limits (-20.0 45.0)
           (-30.0 30.0)
           (-30.0 30.0)
  end
  begin
     id 16
     name head
     direction 0.00695421 0.994078 -0.108445  
     length 1.78678  
     axis 0 0 0   XYZ
    dof rx ry rz
    limits (-20.0 45.0)
           (-30.0 30.0)
           (-30.0 30.0)
  end
  begin
     id 17 
     name lclavicle
     direction 0.97277 0.211305 -0.095232  
     length 3.84823  
     axis 0 0 0   XYZ
    dof ry rz
    limits (-20.0 10.0)
           (0.0 20.0)
  end
  begin
     id 18 
     name lhumerus
     direction 1 -4.48957e-011 -1.98313e-027   
     length 4.97185   
     axis 180 -30 -90   XYZ
    dof rx ry rz
    limits (-60.0 90.0)
           (-90.0 90.0)
           (-90.0 90.0)
  end
  begin
     id 19
     name lradius
     direction 1 -4.4898e-011 7.31063e-027   
     length 3.35811   
     axis 180 -30 -90   XYZ
    dof rx
    limits (-10.0 170.0)
  end
  begin
     id 20
     name lwrist
     direction 1 -4.48938e-011 9.95048e-027   
     length 1.67905   
     axis -8.75986e-015 90 90   XYZ
    dof ry
    limits (-180.0 0.0)
 end
  begin
     id 21 
     name lhand
     direction 1 -4.4901e-011 1.9901e-026   
     length 0.622776   
     axis -1.26985e-014 90 90   XYZ
    dof rx rz
    limits (-90.0 90.0)
           (-45.0 45.0)
  end
  begin
     id 22 
     name lfingers
     direction 1 -4.48961e-011 3.98019e-026   
     length 0.502098   
     axis -2.5397e-014 90 90   XYZ
    dof rx
    limits (0.0 90.0)
  end
  begin
     id 23
     name lthumb
     direction 0.707107 -6.34933e-011 0.707107   
     length 0.720915   
     axis -90 45 2.85299e-015   XYZ
    dof rx rz
    limits (-45.0 45.0)
           (-45.0 45.0)
  end
  begin
     id 24 
     name rclavicle
     direction -0.990867 0.133739 -0.0172226   
     length 3.78845  
     axis 0 0 0   XYZ 
    dof ry rz
    limits (-10.0 20.0)
           (-20.0 0.0)
  end
  begin
     id 25 
     name rhumerus
     direction -1 -4.48972e-011 -1.99267e-027  
     length 4.96493   
     axis 180 30 90   XYZ
    dof rx ry rz
    limits (-90.0 60.0)
           (-90.0 90.0)
           (-90.0 90.0)
  end
  begin
     id 26 
     name rradius
     direction -1 -4.48969e-011 8.96093e-027   
     length 3.34929   
     axis 180 30 90   XYZ
    dof rx
    limits (-10.0 170.0)
  end
  begin
     id 27 
     name rwrist
     direction -1 -4.48953e-011 9.95048e-027   
     length 1.67464   
     axis -8.75986e-015 -90 -90   XYZ
    dof ry
    limits (-180.0 0.0)
  end
  begin
     id 28
     name rhand
     direction -1 -4.49001e-011 1.9901e-026   
     length 0.638041   
     axis -1.26985e-014 -90 -90   XYZ
    dof rx rz
    limits (-90.0 90.0)
           (-45.0 45.0)
  end
  begin
     id 29
     name rfingers
     direction -1 -4.48967e-011 3.98019e-026   
     length 0.514405   
     axis -2.5397e-014 -90 -90   XYZ
    dof rx
    limits (0.0 90.0)
  end
  begin
     id 30
     name rthumb
     direction -0.707107 -6.34904e-011 0.707107   
     length 0.738586   
     axis -90 -45 -2.85299e-015   XYZ
    dof rx rz
    limits (-45.0 45.0)
           (-45.0 45.0)
  end
:hierarchy
  begin
    root lhipjoint rhipjoint lowerback
    lhipjoint lfemur
    lfemur ltibia
    ltibia lfoot
    lfoot ltoes
    rhipjoint rfemur
    rfemur rtibia
    rtibia rfoot
    rfoot rtoes
    lowerback upperback
    upperback thorax
    thorax lowerneck lclavicle rclavicle
    lowerneck upperneck
    upperneck head
    lclavicle lhumerus
    lhumerus lradius
    lradius lwrist
    lwrist lhand lthumb
    lhand lfingers
    rclavicle rhumerus
    rhumerus rradius
    rradius rwrist
    rwrist rhand rthumb
    rhand rfingers
  end

#!OML:ASF E:\Mandelcareful walks\Project 1\Capture day 1\Session 1\Subject1.ASF
:FULLY-SPECIFIED
:DEGREES
200
root -22.4676 15.1792 1.18188 -330.58 58.9096 -344.684
lowerback 33.3759 -2.18786 2.95224
upperback 7.47931 -1.36773 -1.35947
thorax -8.90679 -0.440657 -2.54324
lowerneck -31.8759 10.5118 5.15406
upperneck 19.5564 19.1213 -21.1969
head 15.1568 6.01073 -4.98051
rclavicle -4.69132e-014 4.77083e-015
rhumerus -21.1647 14.5014 -91.2447
rradius 38.3818
rwrist -63.2229
rhand 12.6935 -41.0042
rfingers 7.12502
rthumb 37.6763 -66.8908
lclavicle -4.69132e-014 4.77083e-015
lhumerus -5.4609 -81.2261 98.528
lradius 57.5369
lwrist 4.08521
lhand -28.4973 -19.8084
lfingers 7.12502
lthumb -1.86621 10.1632
rfemur -47.3626 -14.2744 10.8534
rtibia 63.4373
rfoot -28.9759 -13.4547
rtoes -11.6349
lfemur -55.9665 20.9643 -22.708
ltibia 67.6329
lfoot -9.90084 3.90321
ltoes -12.7146
201
root -22.3919 15.1928 1.23541 -330.037 59.0955 -344.08
lowerback 33.1445 -2.34465 3.04213
upperback 7.62076 -1.55879 -1.59563
thorax -8.68555 -0.520739 -2.77442
lowerneck -31.9211 10.5942 5.24223
upperneck 19.3297 19.1088 -21.1353
head 15.059 6.03272 -4.95976
rclavicle 2.22639e-014 4.21423e-014
rhumerus -20.9027 14.1363 -91.5296
rradius 37.9138
rwrist -62.7332
rhand 12.6733 -41.2763
rfingers 7.12502
rthumb 37.6573 -67.1679
lclavicle 2.22639e-014 4.21423e-014
lhumerus -4.20583 -81.0293 97.0421
lradius 57.1633
lwrist 3.39627
lhand -27.4404 -20.0982
lfingers 7.12502
lthumb -0.845454 9.87983
rfemur -46.7456 -14.3745 10.5229
rtibia 63.2261
rfoot -29.3284 -13.7156
rtoes -12.0557
lfemur -56.1903 20.811 -22.9757
ltibia 64.2611
lfoot -10.0871 3.61817
ltoes -14.0255
202
root -22.3171 15.2081 1.27928 -329.595 59.3396 -343.674
lowerback 33.3328 -2.22665 2.86672
upperback 7.40459 -1.45386 -1.43205
thorax -8.97922 -0.48059 -2.54317
lowerneck -31.8641 10.5154 5.11431
upperneck 19.4576 19.1106 -21.1662
head 15.0985 6.0171 -4.95812
rclavicle -6.52014e-014 -7.15625e-015
rhumerus -21.221 13.6387 -91.3438
rradius 37.4988
rwrist -62.3007
rhand 12.4845 -41.6649
rfingers 7.12502
rthumb 37.4788 -67.6041
lclavicle -6.52014e-014 -7.15625e-015
lhumerus -5.05489 -80.1304 98.3754
lradius 56.4007
lwrist 0.357819
lhand -23.2074 -20.3198
lfingers 7.12502
lthumb 3.24277 9.63529
rfemur -46.2001 -14.4209 10.3571
rtibia 62.9337
rfoot -29.4988 -14.313
rtoes -14.0354
lfemur -56.4427 20.5124 -23.1113
ltibia 60.5453
lfoot -10.1177 3.58214
ltoes -14.5947
203
root -22.2335 15.2225 1.31381 -329.257 59.6593 -343.466
lowerback 33.4139 -2.13066 2.85356
upperback 7.2126 -1.32933 -1.29485
thorax -9.20941 -0.432553 -2.43551
lowerneck -31.8266 10.4491 5.05632
upperneck 19.6057 19.1071 -21.2091
head 15.1595 6.00006 -4.97555
rclavicle 7.95139e-015 1.35174e-014
rhumerus -21.4172 12.8921 -91.1151
rradius 36.9255
rwrist -61.7901
rhand 12.6857 -41.6234
rfingers 7.12502
rthumb 37.669 -67.5119
lclavicle 7.95139e-015 1.35174e-014
lhumerus -7.10344 -81.8893 100.583
lradius 56.6812
lwrist 4.45844
lhand -26.8368 -19.2615
lfingers 7.12502
lthumb -0.262477 10.718
rfemur -45.6588 -14.5236 10.2885
rtibia 62.5362
rfoot -29.5789 -15.0082
rtoes -16.4518
lfemur -56.685 20.0679 -23.1148
ltibia 56.6859
lfoot -7.36432 4.27823
ltoes -0.345899
204
root -22.1358 15.2409 1.34439 -329.463 59.7411 -343.68
lowerback 33.5669 -1.94594 2.77263
upperback 7.11356 -1.11248 -1.18771
thorax -9.36023 -0.336218 -2.35806
lowerneck -31.7105 10.454 5.04254
upperneck 19.6819 19.1858 -21.3036
head 15.2009 6.02574 -4.99672
rclavicle 2.54444e-014 -6.52014e-014
rhumerus -21.4792 12.0023 -90.8653
rradius 36.222
rwrist -61.0339
rhand 13.314 -41.1359
rfingers 7.12502
rthumb 38.2623 -66.8633
lclavicle 2.54444e-014 -6.52014e-014
lhumerus -7.31126 -81.8463 101.169
lradius 56.1053
lwrist 3.56439
lhand -25.005 -19.1657
lfingers 7.12502
lthumb 1.50675 10.8087
rfemur -44.9203 -14.3742 10.2562
rtibia 62.0706
rfoot -29.5614 -15.6415
rtoes -18.3192
lfemur -56.5982 20.0234 -23.015
ltibia 52.8779
lfoot -8.47165 5.44556
ltoes -6.74759
205
root -22.0318 15.2683 1.36716 -329.735 59.6765 -343.896
lowerback 33.5817 -1.78158 2.75419
upperback 7.16802 -0.917352 -1.25114
thorax -9.29626 -0.242915 -2.48869
lowerneck -31.6179 10.4546 5.04856
upperneck 19.6469 19.185 -21.3238
head 15.1711 6.03414 -5.00524
rclavicle -7.95139e-014 1.51076e-014
rhumerus -21.259 10.9383 -90.7406
rradius 35.3242
rwrist -60.291
rhand 13.9211 -41.1
rfingers 7.12502
rthumb 38.8352 -66.6671
lclavicle -7.95139e-014 1.51076e-014
lhumerus -7.04495 -82.321 101.079
lradius 55.7291
lwrist 4.20562
lhand -23.471 -19.7807
lfingers 7.12502
lthumb 2.98822 10.1781
rfemur -44.1506 -14.2205 10.1311
rtibia 61.5814
rfoot -29.3447 -15.9993
rtoes -18.8108
lfemur -56.3777 20.054 -22.9221
ltibia 49.2748
lfoot -8.80508 6.42825
ltoes -11.0798
206
root -21.9204 15.2995 1.37963 -330.108 59.5493 -344.174
lowerback 33.5525 -1.70444 2.84188
upperback 7.31155 -0.805729 -1.43445
thorax -9.12581 -0.184381 -2.77183
lowerneck -31.56 10.5186 5.02216
upperneck 19.5355 19.2197 -21.2226
head 15.093 6.07118 -4.9432
rclavicle 6.36111e-015 1.51076e-014
rhumerus -20.8728 9.99688 -90.745
rradius 34.3674
rwrist -59.6067
rhand 14.3572 -40.9637
rfingers 7.12502
rthumb 39.2462 -66.4128
lclavicle 6.36111e-015 1.51076e-014
lhumerus -6.64111 -82.4517 100.671
lradius 55.3981
lwrist 4.36471
lhand -20.5751 -20.2574
lfingers 7.12502
lthumb 5.78457 9.64368
rfemur -43.3108 -14.058 9.93331
rtibia 61.0796
rfoot -29.3294 -15.9091
rtoes -16.8206
lfemur -56.0258 19.9366 -22.5745
ltibia 46.0276
lfoot -8.84872 7.21907
ltoes -12.6887
207
root -21.7993 15.3146 1.3789 -330.64 59.5966 -344.705
lowerback 33.3978 -1.82116 3.2368
upperback 7.49935 -0.843443 -1.6814
thorax -8.87289 -0.1959 -3.23135
lowerneck -31.4703 10.7382 5.21532
upperneck 19.3424 19.4003 -21.2485
head 15.0433 6.17868 -4.92758
rclavicle -3.18055e-014 -2.8625e-014
rhumerus -20.4444 9.21159 -90.9156
rradius 33.5291
rwrist -58.8147
rhand 14.6913 -40.3721
rfingers 7.12502
rthumb 39.561 -65.7291
lclavicle -3.18055e-014 -2.8625e-014
lhumerus -5.66218 -82.3208 99.6333
lradius 55.0687
lwrist 3.92027
lhand -19.2443 -19.6821
lfingers 7.12502
lthumb 7.06929 10.1798
rfemur -42.5215 -14.0443 9.88924
rtibia 60.635
rfoot -29.4463 -15.815
rtoes -15.5394
lfemur -55.7334 19.4644 -21.8013
ltibia 43.291
lfoot -8.41777 8.47635
ltoes -10.2859
208
root -21.6663 15.3105 1.36664 -331.171 59.5748 -345.326
lowerback 33.5491 -1.61133 3.08847
upperback 7.33187 -0.612799 -1.46929
thorax -9.09218 -0.0990246 -3.01221
lowerneck -31.2659 10.8461 5.31025
upperneck 19.3891 19.6651 -21.5842
head 15.1438 6.27191 -5.01637
rclavicle -8.5875e-014 3.18055e-014
rhumerus -20.6084 8.687 -90.5649
rradius 32.8436
rwrist -58.2033
rhand 15.0317 -39.7863
rfingers 7.12502
rthumb 39.8815 -65.0479
lclavicle -8.5875e-014 3.18055e-014
lhumerus -7.92322 -82.137 102.523
lradius 54.6175
lwrist 3.69032
lhand -19.2347 -18.837
lfingers 7.12502
lthumb 7.07864 11.0246
rfemur -41.9231 -14.1904 9.87127
rtibia 60.295
rfoot -29.4228 -15.8654
rtoes -16.4969
lfemur -55.608 19.0136 -21.102
ltibia 41.1498
lfoot -8.90686 9.86607
ltoes -11.7617
209
root -21.5238 15.3013 1.34524 -331.726 59.2065 -345.877
lowerback 33.2526 -1.59494 3.10572
upperback 7.62495 -0.614674 -1.73206
thorax -8.66267 -0.0827658 -3.2992
lowerneck -31.2388 11.029 5.52546
upperneck 19.0339 19.8046 -21.7917
head 15.0668 6.3508 -5.08163
rclavicle -1.35174e-014 3.49861e-014
rhumerus -20.0537 8.29736 -90.7163
rradius 31.9736
rwrist -57.5864
rhand 15.5776 -38.3899
rfingers 7.12502
rthumb 40.395 -63.4955
lclavicle -1.35174e-014 3.49861e-014
lhumerus -4.17584 -81.6185 98.5977
lradius 54.3302
lwrist 2.18479
lhand -17.8947 -19.0286
lfingers 7.12502
lthumb 8.37195 10.7855
rfemur -41.3684 -14.2173 9.63353
rtibia 60.0883
rfoot -29.4892 -15.6891
rtoes -17.267
lfemur -55.42 18.8718 -20.6741
ltibia 39.6362
lfoot -9.42593 11.005
ltoes -13.0757
210
root -21.3701 15.2931 1.31357 -332.359 58.8233 -346.473
lowerback 33.5364 -1.32432 2.77481
upperback 7.51075 -0.376704 -1.65316
thorax -8.87671 0.0234343 -3.12607
lowerneck -31.1579 11.1076 5.53694
upperneck 19.0733 19.9903 -21.9474
head 15.1326 6.41561 -5.10078
rclavicle -7.95139e-014 6.12257e-014
rhumerus -20.2456 7.88135 -90.4078
rradius 31.377
rwrist -57.167
rhand 15.9333 -39.0239
rfingers 7.12502
rthumb 40.7295 -64.0257
lclavicle -7.95139e-014 6.12257e-014
lhumerus -7.70787 -81.9262 102.542
lradius 54.2942
lwrist 3.59741
lhand -20.0585 -18.3256
lfingers 7.12502
lthumb 6.28332 11.5612
rfemur -40.789 -14.2298 9.3509
rtibia 59.9814
rfoot -29.593 -15.4519
rtoes -17.1966
lfemur -55.2079 18.7088 -20.1559
ltibia 38.6939
lfoot -9.99434 11.8237
ltoes -12.3213
211
root -21.2053 15.2757 1.27214 -333.099 58.408 -347.205
lowerback 33.6947 -1.08534 2.51792
upperback 7.46378 -0.16057 -1.60635
thorax -8.97307 0.122398 -3.01928
lowerneck -31.0971 11.2058 5.50468
upperneck 19.0947 20.1891 -22.0273
head 15.1772 6.49049 -5.07596
rclavicle 4.53229e-014 4.13472e-014
rhumerus -20.4311 7.44477 -90.1333
rradius 30.9924
rwrist -56.8585
rhand 16.2324 -39.2733
rfingers 7.12502
rthumb 41.0104 -64.1864
lclavicle 4.53229e-014 4.13472e-014
lhumerus -9.99432 -81.7177 105.235
lradius 53.9937
lwrist 3.80031
lhand -21.0002 -18.5297
lfingers 7.12502
lthumb 5.37411 11.3822
rfemur -40.2698 -14.2983 9.07169
rtibia 59.9629
rfoot -29.7244 -15.0381
rtoes -16.386
lfemur -55.0569 18.6492 -19.6751
ltibia 38.2181
lfoot -10.1146 12.0547
ltoes -10.2542
212
root -21.0318 15.2477 1.22186 -333.84 57.8226 -347.943
lowerback 33.719 -0.874783 2.3103
upperback 7.51999 0.0171586 -1.73224
thorax -8.91075 0.209321 -3.10704
lowerneck -30.9998 11.2929 5.55282
upperneck 19.022 20.2977 -22.0952
head 15.163 6.54355 -5.07987
rclavicle -2.06736e-014 2.62396e-014
rhumerus -20.489 6.91879 -90.0422
rradius 30.6251
rwrist -56.5614
rhand 16.5363 -38.9406
rfingers 7.12502
rthumb 41.2958 -63.7623
lclavicle -2.06736e-014 2.62396e-014
lhumerus -12.4382 -82.4724 107.781
lradius 54.1214
lwrist 6.72847
lhand -24.8124 -17.7029
lfingers 7.12502
lthumb 1.69279 12.2701
rfemur -39.8174 -14.3739 8.70367
rtibia 60.011
rfoot -30.0583 -14.31
rtoes -15.5645
lfemur -54.9418 18.8782 -19.4823
ltibia 38.1178
lfoot -10.2323 11.8747
ltoes -11.4624
213
root -20.847 15.2129 1.16056 -334.646 57.3245 -348.704
lowerback 33.6838 -0.936186 2.4483
upperback 7.70902 -0.0425767 -2.05937
thorax -8.69804 0.191256 -3.50371
lowerneck -31.0138 11.4918 5.78477
upperneck 18.8392 20.4527 -22.1835
head 15.1538 6.62511 -5.10202
rclavicle -7.07673e-014 2.38542e-014
rhumerus -20.3022 6.3423 -90.2033
rradius 30.1893
rwrist -56.2978
rhand 16.3435 -39.6218
rfingers 7.12502
rthumb 41.1148 -64.5016
lclavicle -7.07673e-014 2.38542e-014
lhumerus -9.89472 -80.9162 105.319
lradius 53.3748
lwrist 2.44292
lhand -21.1773 -17.4137
lfingers 7.12502
lthumb 5.20316 12.5024
rfemur -39.2555 -14.4962 8.32481
rtibia 60.0512
rfoot -30.1845 -14.0008
rtoes -17.2605
lfemur -54.7407 18.9167 -19.2114
ltibia 38.404
lfoot -10.2012 11.4168
ltoes -11.8585
214
root -20.6548 15.1681 1.09264 -335.547 56.7084 -349.619
lowerback 33.962 -0.631402 1.76472
upperback 7.73203 0.153565 -1.68317
thorax -8.76067 0.286352 -2.81195
lowerneck -31.2215 11.4762 5.13317
upperneck 18.7582 20.737 -22.2438
head 15.1488 6.68312 -4.93355
rclavicle 2.22639e-014 7.27552e-014
rhumerus -20.3416 6.68444 -89.5448
rradius 30.0563
rwrist -56.6444
rhand 15.43 -41.4667
rfingers 7.12502
rthumb 40.2562 -66.615
lclavicle 2.22639e-014 7.27552e-014
lhumerus -8.76863 -80.1462 105.029
lradius 53.0758
lwrist 1.5479
lhand -20.0359 -17.0057
lfingers 7.12502
lthumb 6.30516 12.8804
rfemur -38.7905 -14.4315 7.96111
rtibia 60.0791
rfoot -29.9838 -14.3363
rtoes -21.0543
lfemur -54.5803 18.8879 -18.7736
ltibia 39.1783
lfoot -10.1572 10.8864
ltoes -12.2643
